<svg xmlns="http://www.w3.org/2000/svg" width="58" height="58" viewBox="0 0 58 58"><g transform="translate(-864 -5314)"><g transform="translate(0 67)"><rect width="5.431" height="18.386" transform="translate(880.303 5269.097)" fill="#fff"/><path d="M875.169,827.946V840.34h-5.431v-9.891a3.45,3.45,0,0,0-3.442-3.442h0a3.457,3.457,0,0,0-3.45,3.442v9.891h-5.432V821.954h5.432v2.716a6.6,6.6,0,0,1,12.323,3.276Z" transform="translate(31.934 4447.143)" fill="#fff" fill-rule="evenodd"/><path d="M524.412,520.909a3.272,3.272,0,1,0-3.276-3.268,3.275,3.275,0,0,0,3.276,3.268Z" transform="translate(358.605 4745.369)" fill="#fff" fill-rule="evenodd"/></g><rect width="58" height="58" transform="translate(864 5314)" fill="none"/></g></svg>