<svg xmlns="http://www.w3.org/2000/svg" width="58" height="58" viewBox="0 0 58 58"><g transform="translate(-941 -5314)"><path d="M214.973,5458.683a10.3,10.3,0,0,1-2.957.795,5.12,5.12,0,0,0,2.259-2.83,10.143,10.143,0,0,1-3.258,1.24,5.139,5.139,0,0,0-8.887,3.515,5.906,5.906,0,0,0,.127,1.178,14.591,14.591,0,0,1-10.588-5.376,5.149,5.149,0,0,0,1.59,6.872,5.151,5.151,0,0,1-2.322-.653v.063a5.137,5.137,0,0,0,4.117,5.043,5.493,5.493,0,0,1-1.352.174,6.869,6.869,0,0,1-.97-.078,5.151,5.151,0,0,0,4.8,3.563,10.3,10.3,0,0,1-6.375,2.194,10.566,10.566,0,0,1-1.241-.063,14.622,14.622,0,0,0,22.5-12.311c0-.224,0-.446-.015-.669A11.063,11.063,0,0,0,214.973,5458.683Z" transform="translate(767.557 -123.443)" fill="#e8f2fa"/><rect width="58" height="58" transform="translate(941 5314)" fill="none"/></g></svg>