<svg xmlns="http://www.w3.org/2000/svg" width="58" height="58" viewBox="0 0 58 58"><g transform="translate(-1013 -5314)"><path d="M29.476,7.694a3.648,3.648,0,0,0-2.567-2.583C24.645,4.5,15.566,4.5,15.566,4.5s-9.079,0-11.343.611A3.648,3.648,0,0,0,1.657,7.694a38.269,38.269,0,0,0-.607,7.033,38.269,38.269,0,0,0,.607,7.033A3.594,3.594,0,0,0,4.223,24.3c2.264.611,11.343.611,11.343.611s9.079,0,11.343-.611a3.594,3.594,0,0,0,2.567-2.542,38.269,38.269,0,0,0,.607-7.033,38.269,38.269,0,0,0-.607-7.033ZM12.6,19.044V10.411l7.588,4.317L12.6,19.044Z" transform="translate(1026.693 5326.71)" fill="#fff"/><rect width="58" height="58" transform="translate(1013 5314)" fill="none"/></g></svg>