<svg xmlns="http://www.w3.org/2000/svg" width="26.064" height="26.068" viewBox="0 0 26.064 26.068"><path d="M22344.025,19026.066h-.506c-1.141,0-2.645-.012-4.152-.09a6.938,6.938,0,0,1-7.277-7.277c-.088-1.52-.088-3.068-.088-4.566v-.1l0-.51,0-.506v-.1c0-1.494,0-3.041.088-4.566a6.938,6.938,0,0,1,7.277-7.277c1.281-.068,2.572-.078,3.777-.078h2.783c1.2,0,2.49.01,3.781.078a6.944,6.944,0,0,1,7.277,7.277c.078,1.459.078,2.955.078,4.275v1.756c.006,1.385.006,2.859-.078,4.314a6.944,6.944,0,0,1-7.277,7.277c-1.375.072-2.824.084-4.186.084h-.988Zm.5-18.98a6.436,6.436,0,1,0,6.441,6.436A6.44,6.44,0,0,0,22344.525,19007.086Zm6.7-1.752a1.5,1.5,0,0,0,0,3.008,1.485,1.485,0,0,0,.578-.117,1.531,1.531,0,0,0,.482-.32,1.48,1.48,0,0,0,.443-1.066A1.5,1.5,0,0,0,22351.225,19005.334Zm-6.7,12.361a4.172,4.172,0,1,1,4.18-4.174A4.177,4.177,0,0,1,22344.525,19017.7Z" transform="translate(-22331.502 -19000.498)" fill="#fff" stroke="rgba(0,0,0,0)" stroke-miterlimit="10" stroke-width="1"/></svg>